<?xml version="1.0" encoding="utf-8"?>
<!-- Generator: Adobe Illustrator 25.1.0, SVG Export Plug-In . SVG Version: 6.00 Build 0)  -->
<svg version="1.1" id="Ebene_1" xmlns="http://www.w3.org/2000/svg" xmlns:xlink="http://www.w3.org/1999/xlink" x="0px" y="0px"
	 viewBox="0 0 36.2 33.1" style="enable-background:new 0 0 36.2 33.1;" xml:space="preserve">
<style type="text/css">
	.st0{fill:#FFFFFF;}
</style>
<g>
	<path class="st0" d="M31.2,16.7c0-7.5-6-13.5-13.5-13.5c-1.6,0-3.2,0.3-4.6,0.8l-0.8-1.3c-0.5,0.2-1,0.4-1.5,0.7l0.7,1.3
		c-0.5,0.2-0.9,0.5-1.4,0.8L9.5,4.1C9,4.4,8.6,4.8,8.2,5.1l0.7,1.2C6,8.8,4.2,12.5,4.2,16.7c0,7.5,6,13.5,13.5,13.5
		c1.7,0,3.3-0.3,4.8-0.9l0.7,1.2c0.5-0.2,1-0.4,1.5-0.7l-0.7-1.2c0.5-0.2,0.9-0.5,1.4-0.8l0.7,1.2c0.5-0.3,0.9-0.6,1.3-1l-0.7-1.3
		C29.4,24.4,31.2,20.7,31.2,16.7z M17.7,28.7c-6.6,0-12-5.4-12-12s5.4-12,12-12c6.6,0,12,5.4,12,12S24.3,28.7,17.7,28.7z"/>
	<path class="st0" d="M20.4,9.3h-6l5,8.5h-1.9l-4.9-8.5h-1.9l5,8.5h-1.4v7.7h1.6v-6h4.4c2,0,5.3-1.1,5.3-5.1
		C25.5,9.4,20.4,9.3,20.4,9.3z M21.2,17.7l-4-6.8h3.2c0.1,0,3.5,0.1,3.5,3.4C23.9,16.6,22.5,17.5,21.2,17.7z"/>
</g>
<g>
</g>
<g>
</g>
<g>
</g>
<g>
</g>
<g>
</g>
<g>
</g>
</svg>
