<?xml version="1.0" encoding="UTF-8"?>
<svg xmlns="http://www.w3.org/2000/svg" xmlns:xlink="http://www.w3.org/1999/xlink" width="36px" height="33px" viewBox="0 0 36 33" version="1.1">
<g id="surface1">
<path style=" stroke:none;fill-rule:evenodd;fill:rgb(0%,0%,0%);fill-opacity:1;" d="M -0.164062 -0.152344 C 11.835938 -0.152344 23.835938 -0.152344 35.835938 -0.152344 C 35.835938 10.847656 35.835938 21.847656 35.835938 32.847656 C 23.835938 32.847656 11.835938 32.847656 -0.164062 32.847656 C -0.164062 21.847656 -0.164062 10.847656 -0.164062 -0.152344 Z M -0.164062 -0.152344 "/>
<path style=" stroke:none;fill-rule:evenodd;fill:rgb(9.019608%,54.117647%,25.882353%);fill-opacity:1;" d="M 17.667969 11.957031 C 18.253906 11.667969 18.914062 11.566406 19.652344 11.65625 C 19.652344 11.351562 19.652344 11.050781 19.652344 10.746094 C 18.992188 10.746094 18.332031 10.746094 17.667969 10.746094 C 17.769531 10.109375 17.660156 9.503906 17.339844 8.929688 C 17.117188 9.679688 16.898438 10.386719 16.679688 11.050781 C 16.679688 10.242188 16.679688 9.4375 16.679688 8.628906 C 17.121094 8.628906 17.558594 8.628906 18 8.628906 C 18 9.234375 18 9.839844 18 10.445312 C 18.332031 10.445312 18.660156 10.445312 18.992188 10.445312 C 18.78125 9.347656 19.21875 8.792969 20.3125 8.78125 C 20.515625 9.527344 20.738281 10.285156 20.972656 11.050781 C 22.167969 11.382812 22.828125 12.089844 22.953125 13.167969 C 22.234375 13.234375 21.683594 12.984375 21.304688 12.414062 C 20.117188 12.078125 18.90625 11.925781 17.667969 11.957031 Z M 17.667969 11.957031 "/>
<path style=" stroke:none;fill-rule:evenodd;fill:rgb(21.176471%,67.843137%,30.196078%);fill-opacity:1;" d="M 17.667969 11.957031 C 14.355469 12.886719 13.199219 14.902344 14.203125 18.015625 C 15.390625 20.507812 17.425781 21.363281 20.3125 20.585938 C 21.167969 20.148438 22.046875 19.796875 22.953125 19.527344 C 22.882812 20.832031 22.109375 21.535156 20.640625 21.648438 C 20.695312 22.359375 20.640625 23.066406 20.476562 23.765625 C 20.050781 24.15625 19.664062 24.15625 19.320312 23.765625 C 19.320312 23.160156 19.320312 22.554688 19.320312 21.949219 C 18.769531 21.949219 18.21875 21.949219 17.667969 21.949219 C 17.667969 22.65625 17.667969 23.363281 17.667969 24.070312 C 17.339844 24.070312 17.007812 24.070312 16.679688 24.070312 C 16.78125 23.238281 16.671875 22.429688 16.347656 21.648438 C 12.710938 19.769531 11.667969 17.046875 13.210938 13.472656 C 14.144531 12.359375 15.300781 11.550781 16.679688 11.050781 C 16.898438 10.386719 17.117188 9.679688 17.339844 8.929688 C 17.660156 9.503906 17.769531 10.109375 17.667969 10.746094 C 18.332031 10.746094 18.992188 10.746094 19.652344 10.746094 C 19.652344 11.050781 19.652344 11.351562 19.652344 11.65625 C 18.914062 11.566406 18.253906 11.667969 17.667969 11.957031 Z M 17.667969 11.957031 "/>
<path style=" stroke:none;fill-rule:evenodd;fill:rgb(7.058824%,32.54902%,14.901961%);fill-opacity:1;" d="M 19.320312 23.765625 C 19.007812 23.335938 18.898438 22.832031 18.992188 22.253906 C 18.660156 22.253906 18.332031 22.253906 18 22.253906 C 18.097656 22.929688 17.988281 23.535156 17.667969 24.070312 C 17.667969 23.363281 17.667969 22.65625 17.667969 21.949219 C 18.21875 21.949219 18.769531 21.949219 19.320312 21.949219 C 19.320312 22.554688 19.320312 23.160156 19.320312 23.765625 Z M 19.320312 23.765625 "/>
</g>
</svg>
