<?xml version="1.0" encoding="UTF-8"?>
<svg xmlns="http://www.w3.org/2000/svg" xmlns:xlink="http://www.w3.org/1999/xlink" width="93px" height="33px" viewBox="0 0 93 33" version="1.1">
<defs>
<filter id="alpha" filterUnits="objectBoundingBox" x="0%" y="0%" width="100%" height="100%">
  <feColorMatrix type="matrix" in="SourceGraphic" values="0 0 0 0 1 0 0 0 0 1 0 0 0 0 1 0 0 0 1 0"/>
</filter>
<mask id="mask0">
  <g filter="url(#alpha)">
<rect x="0" y="0" width="93" height="33" style="fill:rgb(0%,0%,0%);fill-opacity:0.352941;stroke:none;"/>
  </g>
</mask>
<clipPath id="clip1">
  <rect x="0" y="0" width="93" height="33"/>
</clipPath>
<g id="surface5" clip-path="url(#clip1)">
<path style=" stroke:none;fill-rule:evenodd;fill:rgb(72.941176%,72.941176%,72.54902%);fill-opacity:1;" d="M 14.339844 7.734375 C 13.472656 9.453125 12.3125 10.828125 10.863281 11.859375 C 10.285156 11.171875 9.707031 10.484375 9.125 9.796875 C 9.769531 9.933594 10.347656 9.761719 10.863281 9.28125 C 10.070312 8.992188 9.488281 8.476562 9.125 7.734375 C 10.59375 7.46875 12.332031 7.46875 14.339844 7.734375 Z M 14.339844 7.734375 "/>
</g>
<mask id="mask1">
  <g filter="url(#alpha)">
<rect x="0" y="0" width="93" height="33" style="fill:rgb(0%,0%,0%);fill-opacity:0.956863;stroke:none;"/>
  </g>
</mask>
<clipPath id="clip2">
  <rect x="0" y="0" width="93" height="33"/>
</clipPath>
<g id="surface8" clip-path="url(#clip2)">
<path style=" stroke:none;fill-rule:evenodd;fill:rgb(75.686275%,76.078431%,75.294118%);fill-opacity:1;" d="M 18.6875 7.734375 C 19.847656 7.734375 21.003906 7.734375 22.164062 7.734375 C 21.003906 8.765625 21.003906 9.796875 22.164062 10.828125 C 20.851562 12.5625 19.984375 14.625 19.554688 17.015625 C 18.6875 17.015625 17.816406 17.015625 16.949219 17.015625 C 16.367188 16.328125 15.789062 15.640625 15.210938 14.953125 C 18.578125 15.125 19.15625 14.09375 16.949219 11.859375 C 17.816406 11.859375 18.6875 11.859375 19.554688 11.859375 C 19.613281 10.355469 19.324219 8.980469 18.6875 7.734375 Z M 18.6875 7.734375 "/>
</g>
<mask id="mask2">
  <g filter="url(#alpha)">
<rect x="0" y="0" width="93" height="33" style="fill:rgb(0%,0%,0%);fill-opacity:0.807843;stroke:none;"/>
  </g>
</mask>
<clipPath id="clip3">
  <rect x="0" y="0" width="93" height="33"/>
</clipPath>
<g id="surface11" clip-path="url(#clip3)">
<path style=" stroke:none;fill-rule:evenodd;fill:rgb(81.568627%,81.568627%,80.784314%);fill-opacity:1;" d="M 6.519531 9.796875 C 7.097656 9.796875 7.675781 9.796875 8.257812 9.796875 C 8.546875 9.796875 8.835938 9.796875 9.125 9.796875 C 9.707031 10.484375 10.285156 11.171875 10.863281 11.859375 C 10.769531 13.9375 11.351562 15.65625 12.601562 17.015625 C 11.152344 17.015625 9.707031 17.015625 8.257812 17.015625 C 8.625 16.226562 8.914062 15.367188 9.125 14.4375 C 8.210938 12.882812 7.339844 11.335938 6.519531 9.796875 Z M 6.519531 9.796875 "/>
</g>
<mask id="mask3">
  <g filter="url(#alpha)">
<rect x="0" y="0" width="93" height="33" style="fill:rgb(0%,0%,0%);fill-opacity:0.160784;stroke:none;"/>
  </g>
</mask>
<clipPath id="clip4">
  <rect x="0" y="0" width="93" height="33"/>
</clipPath>
<g id="surface14" clip-path="url(#clip4)">
<path style=" stroke:none;fill-rule:evenodd;fill:rgb(69.803922%,70.196078%,70.196078%);fill-opacity:1;" d="M 63.882812 10.828125 C 61.332031 12.636719 61.042969 14.699219 63.015625 17.015625 C 62.144531 17.015625 61.277344 17.015625 60.40625 17.015625 C 60.199219 14.988281 60.488281 13.097656 61.277344 11.34375 C 60.453125 10.847656 59.582031 10.675781 58.667969 10.828125 C 56.929688 10.484375 55.191406 10.140625 53.453125 9.796875 C 54.039062 9.003906 54.761719 8.316406 55.625 7.734375 C 58.277344 9.300781 61.03125 10.332031 63.882812 10.828125 Z M 63.882812 10.828125 "/>
</g>
<mask id="mask4">
  <g filter="url(#alpha)">
<rect x="0" y="0" width="93" height="33" style="fill:rgb(0%,0%,0%);fill-opacity:0.913725;stroke:none;"/>
  </g>
</mask>
<clipPath id="clip5">
  <rect x="0" y="0" width="93" height="33"/>
</clipPath>
<g id="surface17" clip-path="url(#clip5)">
<path style=" stroke:none;fill-rule:evenodd;fill:rgb(72.156863%,72.941176%,72.54902%);fill-opacity:1;" d="M 43.023438 7.734375 C 44.53125 8.257812 44.820312 9.117188 43.890625 10.3125 C 44.714844 10.808594 45.585938 10.980469 46.5 10.828125 C 46.5 11.171875 46.5 11.515625 46.5 11.859375 C 44.597656 13.144531 44.308594 14.863281 45.628906 17.015625 C 45.050781 17.359375 44.472656 17.703125 43.890625 18.046875 C 43.890625 17.359375 43.601562 17.015625 43.023438 17.015625 C 42.523438 14.03125 42.523438 10.9375 43.023438 7.734375 Z M 43.023438 7.734375 "/>
</g>
<mask id="mask5">
  <g filter="url(#alpha)">
<rect x="0" y="0" width="93" height="33" style="fill:rgb(0%,0%,0%);fill-opacity:0.568627;stroke:none;"/>
  </g>
</mask>
<clipPath id="clip6">
  <rect x="0" y="0" width="93" height="33"/>
</clipPath>
<g id="surface20" clip-path="url(#clip6)">
<path style=" stroke:none;fill-rule:evenodd;fill:rgb(77.254902%,77.254902%,76.078431%);fill-opacity:1;" d="M 4.78125 7.734375 C 5.9375 8.421875 7.097656 9.109375 8.257812 9.796875 C 7.675781 9.796875 7.097656 9.796875 6.519531 9.796875 C 2.3125 10.507812 2.023438 12.226562 5.648438 14.953125 C 4.605469 15.769531 3.449219 15.769531 2.171875 14.953125 C 2.03125 12.863281 2.175781 10.800781 2.609375 8.765625 C 3.191406 7.988281 3.914062 7.644531 4.78125 7.734375 Z M 4.78125 7.734375 "/>
</g>
<mask id="mask6">
  <g filter="url(#alpha)">
<rect x="0" y="0" width="93" height="33" style="fill:rgb(0%,0%,0%);fill-opacity:0.733333;stroke:none;"/>
  </g>
</mask>
<clipPath id="clip7">
  <rect x="0" y="0" width="93" height="33"/>
</clipPath>
<g id="surface23" clip-path="url(#clip7)">
<path style=" stroke:none;fill-rule:evenodd;fill:rgb(65.490196%,66.666667%,67.058824%);fill-opacity:1;" d="M 77.789062 13.921875 C 77.742188 15.066406 77.449219 16.097656 76.921875 17.015625 C 76.050781 17.015625 75.183594 17.015625 74.3125 17.015625 C 75.222656 15.59375 76.378906 14.5625 77.789062 13.921875 Z M 77.789062 13.921875 "/>
</g>
<mask id="mask7">
  <g filter="url(#alpha)">
<rect x="0" y="0" width="93" height="33" style="fill:rgb(0%,0%,0%);fill-opacity:0.580392;stroke:none;"/>
  </g>
</mask>
<clipPath id="clip8">
  <rect x="0" y="0" width="93" height="33"/>
</clipPath>
<g id="surface26" clip-path="url(#clip8)">
<path style=" stroke:none;fill-rule:evenodd;fill:rgb(78.431373%,78.823529%,78.431373%);fill-opacity:1;" d="M 34.332031 13.921875 C 34.332031 14.953125 34.332031 15.984375 34.332031 17.015625 C 32.542969 16.542969 32.542969 15.511719 34.332031 13.921875 Z M 34.332031 13.921875 "/>
</g>
</defs>
<g id="surface1">
<path style=" stroke:none;fill-rule:evenodd;fill:rgb(40.784314%,40.784314%,40.784314%);fill-opacity:1;" d="M 4.78125 7.734375 C 6.230469 7.734375 7.675781 7.734375 9.125 7.734375 C 9.488281 8.476562 10.070312 8.992188 10.863281 9.28125 C 10.347656 9.761719 9.769531 9.933594 9.125 9.796875 C 8.835938 9.796875 8.546875 9.796875 8.257812 9.796875 C 7.097656 9.109375 5.9375 8.421875 4.78125 7.734375 Z M 4.78125 7.734375 "/>
<use xlink:href="#surface5" mask="url(#mask0)"/>
<use xlink:href="#surface8" mask="url(#mask1)"/>
<path style=" stroke:none;fill-rule:evenodd;fill:rgb(49.019608%,49.019608%,49.019608%);fill-opacity:1;" d="M 22.164062 7.734375 C 24.671875 7.417969 26.988281 7.761719 29.117188 8.765625 C 27.996094 8.519531 27.125 8.863281 26.507812 9.796875 C 25.238281 8.574219 24.082031 8.574219 23.03125 9.796875 C 23.03125 10.484375 22.742188 10.828125 22.164062 10.828125 C 21.003906 9.796875 21.003906 8.765625 22.164062 7.734375 Z M 22.164062 7.734375 "/>
<path style=" stroke:none;fill-rule:evenodd;fill:rgb(43.921569%,43.921569%,43.529412%);fill-opacity:1;" d="M 29.117188 8.765625 C 30.277344 9.796875 30.277344 10.828125 29.117188 11.859375 C 28.304688 12.960938 28.015625 14.335938 28.246094 15.984375 C 26.769531 15.957031 25.613281 15.269531 24.769531 13.921875 C 25.726562 12.78125 26.308594 11.40625 26.507812 9.796875 C 27.125 8.863281 27.996094 8.519531 29.117188 8.765625 Z M 29.117188 8.765625 "/>
<path style=" stroke:none;fill-rule:evenodd;fill:rgb(40%,40.392157%,40%);fill-opacity:1;" d="M 35.199219 8.765625 C 36.589844 8.488281 37.75 8.832031 38.675781 9.796875 C 38.148438 12.792969 36.992188 15.199219 35.199219 17.015625 C 34.910156 17.015625 34.621094 17.015625 34.332031 17.015625 C 34.332031 15.984375 34.332031 14.953125 34.332031 13.921875 C 35.027344 12.332031 35.316406 10.613281 35.199219 8.765625 Z M 35.199219 8.765625 "/>
<path style=" stroke:none;fill-rule:evenodd;fill:rgb(41.568627%,41.960784%,41.960784%);fill-opacity:1;" d="M 35.199219 8.765625 C 37.625 7.757812 40.230469 7.414062 43.023438 7.734375 C 42.523438 10.9375 42.523438 14.03125 43.023438 17.015625 C 41.863281 17.015625 40.707031 17.015625 39.546875 17.015625 C 39.390625 14.859375 39.679688 12.796875 40.414062 10.828125 C 40.019531 10.003906 39.4375 9.660156 38.675781 9.796875 C 37.75 8.832031 36.589844 8.488281 35.199219 8.765625 Z M 35.199219 8.765625 "/>
<path style=" stroke:none;fill-rule:evenodd;fill:rgb(39.215686%,39.215686%,39.215686%);fill-opacity:1;" d="M 88.21875 10.828125 C 87.144531 12.597656 86.5625 14.660156 86.480469 17.015625 C 85.613281 17.015625 84.742188 17.015625 83.875 17.015625 C 83.984375 15.246094 84.273438 13.527344 84.742188 11.859375 C 84.671875 10.054688 85.394531 9.023438 86.914062 8.765625 C 87.8125 9.113281 88.246094 9.800781 88.21875 10.828125 Z M 88.21875 10.828125 "/>
<path style=" stroke:none;fill-rule:evenodd;fill:rgb(42.745098%,42.745098%,42.745098%);fill-opacity:1;" d="M 6.519531 9.796875 C 7.339844 11.335938 8.210938 12.882812 9.125 14.4375 C 8.914062 15.367188 8.625 16.226562 8.257812 17.015625 C 5.921875 17.183594 3.605469 17.011719 1.304688 16.5 C 1.785156 16.105469 2.078125 15.589844 2.171875 14.953125 C 3.449219 15.769531 4.605469 15.769531 5.648438 14.953125 C 2.023438 12.226562 2.3125 10.507812 6.519531 9.796875 Z M 6.519531 9.796875 "/>
<use xlink:href="#surface11" mask="url(#mask2)"/>
<path style=" stroke:none;fill-rule:evenodd;fill:rgb(43.137255%,43.137255%,43.137255%);fill-opacity:1;" d="M 18.6875 7.734375 C 19.324219 8.980469 19.613281 10.355469 19.554688 11.859375 C 18.6875 11.859375 17.816406 11.859375 16.949219 11.859375 C 17.15625 8.25 16.433594 7.90625 14.777344 10.828125 C 14.109375 12.441406 14.253906 13.816406 15.210938 14.953125 C 15.789062 15.640625 16.367188 16.328125 16.949219 17.015625 C 15.5 17.015625 14.050781 17.015625 12.601562 17.015625 C 11.351562 15.65625 10.769531 13.9375 10.863281 11.859375 C 12.3125 10.828125 13.472656 9.453125 14.339844 7.734375 C 15.847656 6.640625 17.296875 6.640625 18.6875 7.734375 Z M 18.6875 7.734375 "/>
<path style=" stroke:none;fill-rule:evenodd;fill:rgb(81.960784%,82.352941%,81.568627%);fill-opacity:1;" d="M 16.949219 11.859375 C 19.15625 14.09375 18.578125 15.125 15.210938 14.953125 C 14.253906 13.816406 14.109375 12.441406 14.777344 10.828125 C 16.433594 7.90625 17.15625 8.25 16.949219 11.859375 Z M 16.949219 11.859375 "/>
<path style=" stroke:none;fill-rule:evenodd;fill:rgb(72.54902%,72.941176%,72.156863%);fill-opacity:1;" d="M 23.03125 9.796875 C 24.082031 8.574219 25.238281 8.574219 26.507812 9.796875 C 26.308594 11.40625 25.726562 12.78125 24.769531 13.921875 C 24.769531 14.953125 24.769531 15.984375 24.769531 17.015625 C 24.191406 17.015625 23.613281 17.015625 23.03125 17.015625 C 23.175781 14.617188 23.753906 12.382812 24.769531 10.3125 C 24.253906 9.832031 23.675781 9.660156 23.03125 9.796875 Z M 23.03125 9.796875 "/>
<path style=" stroke:none;fill-rule:evenodd;fill:rgb(40.392157%,40.784314%,40.784314%);fill-opacity:1;" d="M 53.453125 9.796875 C 55.191406 10.140625 56.929688 10.484375 58.667969 10.828125 C 58.667969 11.515625 58.378906 11.859375 57.800781 11.859375 C 54.886719 12.242188 54.019531 13.964844 55.191406 17.015625 C 54.03125 17.015625 52.875 17.015625 51.714844 17.015625 C 51.945312 14.472656 52.527344 12.066406 53.453125 9.796875 Z M 53.453125 9.796875 "/>
<use xlink:href="#surface14" mask="url(#mask3)"/>
<path style=" stroke:none;fill-rule:evenodd;fill:rgb(44.313725%,44.313725%,44.313725%);fill-opacity:1;" d="M 23.03125 9.796875 C 23.675781 9.660156 24.253906 9.832031 24.769531 10.3125 C 23.753906 12.382812 23.175781 14.617188 23.03125 17.015625 C 21.875 18.390625 20.714844 18.390625 19.554688 17.015625 C 19.984375 14.625 20.851562 12.5625 22.164062 10.828125 C 22.742188 10.828125 23.03125 10.484375 23.03125 9.796875 Z M 23.03125 9.796875 "/>
<path style=" stroke:none;fill-rule:evenodd;fill:rgb(75.294118%,76.078431%,75.686275%);fill-opacity:1;" d="M 38.675781 9.796875 C 39.4375 9.660156 40.019531 10.003906 40.414062 10.828125 C 39.679688 12.796875 39.390625 14.859375 39.546875 17.015625 C 40.707031 17.015625 41.863281 17.015625 43.023438 17.015625 C 43.601562 17.015625 43.890625 17.359375 43.890625 18.046875 C 40.8125 18.371094 37.917969 18.027344 35.199219 17.015625 C 36.992188 15.199219 38.148438 12.792969 38.675781 9.796875 Z M 38.675781 9.796875 "/>
<use xlink:href="#surface17" mask="url(#mask4)"/>
<path style=" stroke:none;fill-rule:evenodd;fill:rgb(52.156863%,52.54902%,52.156863%);fill-opacity:1;" d="M 50.847656 10.828125 C 51.136719 13.921875 49.976562 15.296875 47.371094 14.953125 C 47.574219 13.621094 47.285156 12.589844 46.5 11.859375 C 46.5 11.515625 46.5 11.171875 46.5 10.828125 C 47.949219 9.453125 49.398438 9.453125 50.847656 10.828125 Z M 50.847656 10.828125 "/>
<path style=" stroke:none;fill-rule:evenodd;fill:rgb(38.431373%,38.431373%,38.431373%);fill-opacity:1;" d="M 58.667969 10.828125 C 59.582031 10.675781 60.453125 10.847656 61.277344 11.34375 C 60.488281 13.097656 60.199219 14.988281 60.40625 17.015625 C 59.828125 17.015625 59.246094 17.015625 58.667969 17.015625 C 57.972656 15.425781 57.683594 13.707031 57.800781 11.859375 C 58.378906 11.859375 58.667969 11.515625 58.667969 10.828125 Z M 58.667969 10.828125 "/>
<path style=" stroke:none;fill-rule:evenodd;fill:rgb(40%,40%,40%);fill-opacity:1;" d="M 63.882812 10.828125 C 64.460938 10.828125 65.042969 10.828125 65.621094 10.828125 C 64.246094 12.519531 63.667969 14.582031 63.882812 17.015625 C 63.59375 17.015625 63.304688 17.015625 63.015625 17.015625 C 61.042969 14.699219 61.332031 12.636719 63.882812 10.828125 Z M 63.882812 10.828125 "/>
<path style=" stroke:none;fill-rule:evenodd;fill:rgb(39.215686%,39.215686%,39.215686%);fill-opacity:1;" d="M 66.492188 10.828125 C 67.070312 10.828125 67.648438 10.828125 68.230469 10.828125 C 68.113281 11.730469 68.40625 12.417969 69.097656 12.890625 C 70.199219 11.933594 71.359375 11.761719 72.574219 12.375 C 71.847656 13.417969 71.558594 14.621094 71.707031 15.984375 C 71.125 15.984375 70.546875 15.984375 69.96875 15.984375 C 68.792969 13.296875 67.492188 13.296875 66.054688 15.984375 C 66.074219 14.328125 66.21875 12.609375 66.492188 10.828125 Z M 66.492188 10.828125 "/>
<path style=" stroke:none;fill-rule:evenodd;fill:rgb(55.294118%,56.078431%,56.078431%);fill-opacity:1;" d="M 68.230469 10.828125 C 71.414062 10.828125 74.601562 10.828125 77.789062 10.828125 C 77.550781 13.15625 76.679688 13.5 75.183594 11.859375 C 74.390625 13.792969 73.234375 15.167969 71.707031 15.984375 C 71.558594 14.621094 71.847656 13.417969 72.574219 12.375 C 71.359375 11.761719 70.199219 11.933594 69.097656 12.890625 C 68.40625 12.417969 68.113281 11.730469 68.230469 10.828125 Z M 68.230469 10.828125 "/>
<path style=" stroke:none;fill-rule:evenodd;fill:rgb(38.823529%,38.823529%,38.823529%);fill-opacity:1;" d="M 83.875 11.859375 C 82.945312 12.824219 81.785156 13.167969 80.398438 12.890625 C 80.457031 14.394531 80.167969 15.769531 79.527344 17.015625 C 78.660156 17.015625 77.789062 17.015625 76.921875 17.015625 C 77.449219 16.097656 77.742188 15.066406 77.789062 13.921875 C 78.574219 13.191406 78.863281 12.160156 78.660156 10.828125 C 80.367188 11.074219 81.960938 10.730469 83.4375 9.796875 C 83.84375 10.410156 83.988281 11.097656 83.875 11.859375 Z M 83.875 11.859375 "/>
<use xlink:href="#surface20" mask="url(#mask5)"/>
<path style=" stroke:none;fill-rule:evenodd;fill:rgb(40.392157%,40.784314%,40.784314%);fill-opacity:1;" d="M 77.789062 10.828125 C 78.078125 10.828125 78.371094 10.828125 78.660156 10.828125 C 78.863281 12.160156 78.574219 13.191406 77.789062 13.921875 C 76.378906 14.5625 75.222656 15.59375 74.3125 17.015625 C 72.863281 17.015625 71.414062 17.015625 69.96875 17.015625 C 69.96875 16.671875 69.96875 16.328125 69.96875 15.984375 C 70.546875 15.984375 71.125 15.984375 71.707031 15.984375 C 73.234375 15.167969 74.390625 13.792969 75.183594 11.859375 C 76.679688 13.5 77.550781 13.15625 77.789062 10.828125 Z M 77.789062 10.828125 "/>
<path style=" stroke:none;fill-rule:evenodd;fill:rgb(39.607843%,39.607843%,39.607843%);fill-opacity:1;" d="M 46.5 11.859375 C 47.285156 12.589844 47.574219 13.621094 47.371094 14.953125 C 48.238281 15.640625 49.109375 16.328125 49.976562 17.015625 C 48.527344 17.015625 47.078125 17.015625 45.628906 17.015625 C 44.308594 14.863281 44.597656 13.144531 46.5 11.859375 Z M 46.5 11.859375 "/>
<path style=" stroke:none;fill-rule:evenodd;fill:rgb(52.941176%,53.72549%,54.117647%);fill-opacity:1;" d="M 92.566406 9.796875 C 92.566406 12.546875 92.566406 15.296875 92.566406 18.046875 C 90.21875 17.730469 88.191406 17.382812 86.480469 17.015625 C 86.5625 14.660156 87.144531 12.597656 88.21875 10.828125 C 89.625 10.273438 91.074219 9.929688 92.566406 9.796875 Z M 92.566406 9.796875 "/>
<path style=" stroke:none;fill-rule:evenodd;fill:rgb(66.27451%,67.843137%,67.843137%);fill-opacity:1;" d="M 83.875 11.859375 C 84.164062 11.859375 84.453125 11.859375 84.742188 11.859375 C 84.273438 13.527344 83.984375 15.246094 83.875 17.015625 C 82.425781 17.015625 80.976562 17.015625 79.527344 17.015625 C 80.167969 15.769531 80.457031 14.394531 80.398438 12.890625 C 81.785156 13.167969 82.945312 12.824219 83.875 11.859375 Z M 83.875 11.859375 "/>
<path style=" stroke:none;fill-rule:evenodd;fill:rgb(69.411765%,70.588235%,70.196078%);fill-opacity:1;" d="M 53.453125 9.796875 C 52.527344 12.066406 51.945312 14.472656 51.714844 17.015625 C 51.136719 17.015625 50.554688 17.015625 49.976562 17.015625 C 49.109375 16.328125 48.238281 15.640625 47.371094 14.953125 C 49.976562 15.296875 51.136719 13.921875 50.847656 10.828125 C 51.621094 10.199219 52.488281 9.855469 53.453125 9.796875 Z M 53.453125 9.796875 "/>
<path style=" stroke:none;fill-rule:evenodd;fill:rgb(63.137255%,63.921569%,63.921569%);fill-opacity:1;" d="M 57.800781 11.859375 C 57.683594 13.707031 57.972656 15.425781 58.667969 17.015625 C 57.507812 17.015625 56.351562 17.015625 55.191406 17.015625 C 54.019531 13.964844 54.886719 12.242188 57.800781 11.859375 Z M 57.800781 11.859375 "/>
<path style=" stroke:none;fill-rule:evenodd;fill:rgb(59.607843%,60.392157%,60.392157%);fill-opacity:1;" d="M 65.621094 10.828125 C 65.910156 10.828125 66.199219 10.828125 66.492188 10.828125 C 66.21875 12.609375 66.074219 14.328125 66.054688 15.984375 C 67.492188 13.296875 68.792969 13.296875 69.96875 15.984375 C 69.96875 16.328125 69.96875 16.671875 69.96875 17.015625 C 67.9375 17.015625 65.910156 17.015625 63.882812 17.015625 C 63.667969 14.582031 64.246094 12.519531 65.621094 10.828125 Z M 65.621094 10.828125 "/>
<use xlink:href="#surface23" mask="url(#mask6)"/>
<path style=" stroke:none;fill-rule:evenodd;fill:rgb(59.607843%,60%,59.607843%);fill-opacity:1;" d="M 29.117188 11.859375 C 30.734375 16.9375 29.285156 18.65625 24.769531 17.015625 C 24.769531 15.984375 24.769531 14.953125 24.769531 13.921875 C 25.613281 15.269531 26.769531 15.957031 28.246094 15.984375 C 28.015625 14.335938 28.304688 12.960938 29.117188 11.859375 Z M 29.117188 11.859375 "/>
<use xlink:href="#surface26" mask="url(#mask7)"/>
</g>
</svg>
